<svg width="60" height="60" viewBox="0 0 60 60" fill="none" xmlns="http://www.w3.org/2000/svg">
<g clip-path="url(#clip0_341_4)">
<path d="M30 20C30.892 20 32.01 20.113 32.941 20.428C33.405 20.584 33.891 20.813 34.277 21.161C34.683 21.526 35 22.048 35 22.714C35 23.356 34.706 23.886 34.353 24.28C34.1549 24.4984 33.9325 24.6933 33.69 24.861C36.675 26.284 39 29.335 39 33C39 35.556 37.98 37.386 36.234 38.525C34.559 39.617 32.33 40 30 40C27.67 40 25.44 39.617 23.766 38.525C22.02 37.386 21 35.555 21 33C21 29.335 23.325 26.284 26.31 24.861C26.0676 24.6936 25.8451 24.499 25.647 24.281C25.294 23.885 25 23.355 25 22.713C25 22.047 25.317 21.525 25.723 21.16C26.109 20.812 26.595 20.583 27.059 20.427C27.99 20.113 29.108 20 30 20ZM30 26C26.512 26 23 29.092 23 33C23 34.944 23.73 36.114 24.859 36.85C26.059 37.633 27.83 38 30 38C32.17 38 33.94 37.633 35.141 36.85C36.27 36.114 37 34.944 37 33C37 29.092 33.488 26 30 26ZM31.947 28.606C32.184 28.7246 32.3642 28.9325 32.448 29.184C32.5319 29.4354 32.5124 29.7099 32.394 29.947L31.868 31H32C32.2652 31 32.5196 31.1054 32.7071 31.2929C32.8946 31.4804 33 31.7348 33 32C33 32.2652 32.8946 32.5196 32.7071 32.7071C32.5196 32.8946 32.2652 33 32 33H31V33.5H32C32.2652 33.5 32.5196 33.6054 32.7071 33.7929C32.8946 33.9804 33 34.2348 33 34.5C33 34.7652 32.8946 35.0196 32.7071 35.2071C32.5196 35.3946 32.2652 35.5 32 35.5H31V36C31 36.2652 30.8946 36.5196 30.7071 36.7071C30.5196 36.8946 30.2652 37 30 37C29.7348 37 29.4804 36.8946 29.2929 36.7071C29.1054 36.5196 29 36.2652 29 36V35.5H28C27.7348 35.5 27.4804 35.3946 27.2929 35.2071C27.1054 35.0196 27 34.7652 27 34.5C27 34.2348 27.1054 33.9804 27.2929 33.7929C27.4804 33.6054 27.7348 33.5 28 33.5H29V33H28C27.7348 33 27.4804 32.8946 27.2929 32.7071C27.1054 32.5196 27 32.2652 27 32C27 31.7348 27.1054 31.4804 27.2929 31.2929C27.4804 31.1054 27.7348 31 28 31H28.132L27.606 29.947C27.5424 29.8291 27.5032 29.6997 27.4906 29.5663C27.478 29.433 27.4923 29.2985 27.5327 29.1708C27.5731 29.0431 27.6387 28.9249 27.7257 28.823C27.8126 28.7212 27.9192 28.6378 28.039 28.5779C28.1588 28.518 28.2893 28.4828 28.423 28.4744C28.5567 28.4659 28.6906 28.4844 28.817 28.5287C28.9434 28.573 29.0596 28.6422 29.1587 28.7323C29.2578 28.8224 29.3378 28.9314 29.394 29.053L30 30.263L30.606 29.053C30.7246 28.816 30.9325 28.6358 31.184 28.552C31.4354 28.4681 31.7099 28.4876 31.947 28.606ZM30 22C29.235 22 28.353 22.101 27.699 22.322C27.369 22.434 27.166 22.552 27.061 22.647L27.009 22.702C27.0057 22.7065 27.0027 22.7112 27 22.716L27.007 22.748C27.0364 22.8227 27.0807 22.8908 27.137 22.948C27.277 23.104 27.512 23.282 27.839 23.451C28.499 23.793 29.342 24 30 24C30.658 24 31.502 23.793 32.161 23.451C32.488 23.282 32.722 23.104 32.863 22.947C32.9192 22.8901 32.9634 22.8224 32.993 22.748L33 22.716L32.972 22.68C32.9615 22.6685 32.9505 22.6575 32.939 22.647C32.834 22.553 32.631 22.434 32.301 22.322C31.647 22.102 30.765 22 30 22Z" fill="#555555"/>
</g>
<circle cx="30" cy="30" r="30" fill="#222222" fill-opacity="0.1"/>
<defs>
<clipPath id="clip0_341_4">
<rect width="24" height="24" fill="white" transform="translate(18 18)"/>
</clipPath>
</defs>
</svg>
