<svg width="24" height="24" viewBox="0 0 24 24" fill="none" xmlns="http://www.w3.org/2000/svg">
<path d="M21.75 5.25H2.25C1.85218 5.25 1.47064 5.40804 1.18934 5.68934C0.908035 5.97064 0.75 6.35218 0.75 6.75V17.25C0.75 17.6478 0.908035 18.0294 1.18934 18.3107C1.47064 18.592 1.85218 18.75 2.25 18.75H21.75C22.1478 18.75 22.5294 18.592 22.8107 18.3107C23.092 18.0294 23.25 17.6478 23.25 17.25V6.75C23.25 6.35218 23.092 5.97064 22.8107 5.68934C22.5294 5.40804 22.1478 5.25 21.75 5.25ZM7.78125 17.25L2.25 12.4125V11.5875L7.78125 6.75H16.2188L21.75 11.5875V12.4125L16.2188 17.25H7.78125ZM21.75 9.6L18.4969 6.75H21.75V9.6ZM5.50313 6.75L2.25 9.6V6.75H5.50313ZM2.25 14.4L5.50313 17.25H2.25V14.4ZM21.75 17.25H18.4969L21.75 14.4V17.25ZM12 8.25C11.2583 8.25 10.5333 8.46993 9.91661 8.88199C9.29993 9.29404 8.81928 9.87971 8.53545 10.5649C8.25162 11.2502 8.17736 12.0042 8.32205 12.7316C8.46675 13.459 8.8239 14.1272 9.34835 14.6517C9.8728 15.1761 10.541 15.5333 11.2684 15.6779C11.9958 15.8226 12.7498 15.7484 13.4351 15.4645C14.1203 15.1807 14.706 14.7001 15.118 14.0834C15.5301 13.4667 15.75 12.7417 15.75 12C15.75 11.0054 15.3549 10.0516 14.6517 9.34835C13.9484 8.64509 12.9946 8.25 12 8.25ZM12 14.25C11.555 14.25 11.12 14.118 10.75 13.8708C10.38 13.6236 10.0916 13.2722 9.92127 12.861C9.75097 12.4499 9.70642 11.9975 9.79323 11.561C9.88005 11.1246 10.0943 10.7237 10.409 10.409C10.7237 10.0943 11.1246 9.88005 11.561 9.79323C11.9975 9.70642 12.4499 9.75097 12.861 9.92127C13.2722 10.0916 13.6236 10.38 13.8708 10.75C14.118 11.12 14.25 11.555 14.25 12C14.2475 12.596 14.0097 13.1668 13.5883 13.5883C13.1668 14.0097 12.596 14.2475 12 14.25Z" fill="black"/>
</svg>
