<svg width="50" height="50" viewBox="0 0 50 50" fill="none" xmlns="http://www.w3.org/2000/svg">
<circle cx="25" cy="25" r="25" fill="#DC2626" fill-opacity="0.2"/>
<g clip-path="url(#clip0_352_3)">
<path d="M24.9334 24.5333C26.7334 24.5333 28.1334 23.0667 28.1334 21.2667C28.1334 19.4667 26.6667 18.0667 24.8667 18.0667C23.0667 18.0667 21.6667 19.5333 21.6667 21.2667C21.6667 23.0667 23.1334 24.5333 24.9334 24.5333ZM24.8667 19.4C24.9334 19.4 24.9334 19.4 24.8667 19.4C25.9334 19.4 26.8001 20.2667 26.8001 21.3333C26.8001 22.4 25.9334 23.2 24.8667 23.2C23.8001 23.2 23.0001 22.3333 23.0001 21.3333C23.0001 20.2667 23.8667 19.4 24.8667 19.4Z" fill="#555555"/>
<path d="M34.8 24.1333C33.5333 23 31.8667 22.4 30.1333 22.4667H29.6C29.4667 23 29.2667 23.4667 29 23.8667C29.4 23.8 29.7333 23.8 30.1333 23.8C31.4 23.7333 32.6667 24.1333 33.6667 24.8667V29.6667H35V24.3333L34.8 24.1333Z" fill="#555555"/>
<path d="M28.6001 18.2C28.9334 17.4 29.8667 17 30.7334 17.3333C31.5334 17.6667 31.9334 18.6 31.6001 19.4667C31.3334 20.0667 30.7334 20.4667 30.1334 20.4667C30.0001 20.4667 29.8001 20.4667 29.6667 20.4C29.7334 20.7333 29.7334 21.0667 29.7334 21.3333V21.7333C29.8667 21.7333 30.0001 21.8 30.1334 21.8C31.8001 21.8 33.1334 20.4667 33.1334 18.8667C33.1334 17.2 31.8001 15.8667 30.2001 15.8667C29.1334 15.8667 28.2001 16.4 27.6667 17.3333C28.0001 17.5333 28.3334 17.8 28.6001 18.2Z" fill="#555555"/>
<path d="M21 23.9333C20.7333 23.5333 20.5333 23.0667 20.4 22.5333H19.8667C18.1333 22.4667 16.4667 23.0667 15.2 24.1333L15 24.3333V29.6667H16.3333V24.8667C17.4 24.1333 18.6 23.7333 19.8667 23.8C20.2667 23.8 20.6667 23.8667 21 23.9333Z" fill="#555555"/>
<path d="M19.8667 21.7333C20 21.7333 20.1333 21.7333 20.2667 21.6667V21.2667C20.2667 20.9333 20.2667 20.6 20.3333 20.3333C20.2 20.4 20 20.4 19.8667 20.4C19 20.4 18.2667 19.6667 18.2667 18.8C18.2667 17.9333 19 17.2 19.8667 17.2C20.5333 17.2 21.1333 17.6 21.4 18.2C21.6667 17.8667 22.0667 17.5333 22.4 17.2667C21.5333 15.8667 19.7333 15.4 18.3333 16.2667C16.9333 17.1333 16.4667 18.9333 17.3333 20.3333C17.8667 21.2 18.8 21.7333 19.8667 21.7333Z" fill="#555555"/>
<path d="M30.4001 28.1333L30.2667 27.9333C28.9334 26.4667 27.0667 25.6 25.0667 25.6667C23.0667 25.6 21.1334 26.4667 19.8001 27.9333L19.6667 28.1333V33.2C19.6667 33.8 20.1334 34.3333 20.8001 34.3333H29.3334C29.9334 34.3333 30.4667 33.8 30.4667 33.2V28.1333H30.4001ZM29.0667 33H21.0001V28.6C22.0667 27.5333 23.5334 27 25.0667 27C26.5334 26.9333 28.0001 27.5333 29.0667 28.6V33Z" fill="#555555"/>
</g>
<defs>
<clipPath id="clip0_352_3">
<rect width="24" height="24" fill="white" transform="translate(13 13)"/>
</clipPath>
</defs>
</svg>
