<svg width="127" height="30" viewBox="0 0 127 30" fill="none" xmlns="http://www.w3.org/2000/svg">
<rect width="127" height="30" rx="5" fill="#14B8A6" fill-opacity="0.1"/>
<path d="M20.41 19V8.5H22.36V19H20.41ZM29.565 10.9C30.205 10.9 30.775 11.025 31.275 11.275C31.785 11.525 32.185 11.91 32.475 12.43C32.765 12.94 32.91 13.6 32.91 14.41V19H31.035V14.65C31.035 13.94 30.865 13.41 30.525 13.06C30.195 12.71 29.73 12.535 29.13 12.535C28.69 12.535 28.3 12.625 27.96 12.805C27.62 12.985 27.355 13.255 27.165 13.615C26.985 13.965 26.895 14.41 26.895 14.95V19H25.02V10.99H26.805V13.15L26.49 12.49C26.77 11.98 27.175 11.59 27.705 11.32C28.245 11.04 28.865 10.9 29.565 10.9ZM43.8741 19.105C43.2241 19.105 42.6291 18.955 42.0891 18.655C41.5591 18.355 41.1341 17.905 40.8141 17.305C40.5041 16.695 40.3491 15.925 40.3491 14.995C40.3491 14.055 40.4991 13.285 40.7991 12.685C41.1091 12.085 41.5291 11.64 42.0591 11.35C42.5891 11.05 43.1941 10.9 43.8741 10.9C44.6641 10.9 45.3591 11.07 45.9591 11.41C46.5691 11.75 47.0491 12.225 47.3991 12.835C47.7591 13.445 47.9391 14.165 47.9391 14.995C47.9391 15.825 47.7591 16.55 47.3991 17.17C47.0491 17.78 46.5691 18.255 45.9591 18.595C45.3591 18.935 44.6641 19.105 43.8741 19.105ZM39.4341 21.91V10.99H41.2191V12.88L41.1591 15.01L41.3091 17.14V21.91H39.4341ZM43.6641 17.5C44.1141 17.5 44.5141 17.4 44.8641 17.2C45.2241 17 45.5091 16.71 45.7191 16.33C45.9291 15.95 46.0341 15.505 46.0341 14.995C46.0341 14.475 45.9291 14.03 45.7191 13.66C45.5091 13.28 45.2241 12.99 44.8641 12.79C44.5141 12.59 44.1141 12.49 43.6641 12.49C43.2141 12.49 42.8091 12.59 42.4491 12.79C42.0891 12.99 41.8041 13.28 41.5941 13.66C41.3841 14.03 41.2791 14.475 41.2791 14.995C41.2791 15.505 41.3841 15.95 41.5941 16.33C41.8041 16.71 42.0891 17 42.4491 17.2C42.8091 17.4 43.2141 17.5 43.6641 17.5ZM49.7173 19V10.99H51.5023V13.195L51.2923 12.55C51.5323 12.01 51.9073 11.6 52.4173 11.32C52.9373 11.04 53.5823 10.9 54.3523 10.9V12.685C54.2723 12.665 54.1973 12.655 54.1273 12.655C54.0573 12.645 53.9873 12.64 53.9173 12.64C53.2073 12.64 52.6423 12.85 52.2223 13.27C51.8023 13.68 51.5923 14.295 51.5923 15.115V19H49.7173ZM59.4696 19.105C58.6496 19.105 57.9196 18.93 57.2796 18.58C56.6396 18.22 56.1346 17.73 55.7646 17.11C55.3946 16.49 55.2096 15.785 55.2096 14.995C55.2096 14.195 55.3946 13.49 55.7646 12.88C56.1346 12.26 56.6396 11.775 57.2796 11.425C57.9196 11.075 58.6496 10.9 59.4696 10.9C60.2996 10.9 61.0346 11.075 61.6746 11.425C62.3246 11.775 62.8296 12.255 63.1896 12.865C63.5596 13.475 63.7446 14.185 63.7446 14.995C63.7446 15.785 63.5596 16.49 63.1896 17.11C62.8296 17.73 62.3246 18.22 61.6746 18.58C61.0346 18.93 60.2996 19.105 59.4696 19.105ZM59.4696 17.5C59.9296 17.5 60.3396 17.4 60.6996 17.2C61.0596 17 61.3396 16.71 61.5396 16.33C61.7496 15.95 61.8546 15.505 61.8546 14.995C61.8546 14.475 61.7496 14.03 61.5396 13.66C61.3396 13.28 61.0596 12.99 60.6996 12.79C60.3396 12.59 59.9346 12.49 59.4846 12.49C59.0246 12.49 58.6146 12.59 58.2546 12.79C57.9046 12.99 57.6246 13.28 57.4146 13.66C57.2046 14.03 57.0996 14.475 57.0996 14.995C57.0996 15.505 57.2046 15.95 57.4146 16.33C57.6246 16.71 57.9046 17 58.2546 17.2C58.6146 17.4 59.0196 17.5 59.4696 17.5ZM69.1676 22.015C68.4276 22.015 67.7026 21.915 66.9926 21.715C66.2926 21.525 65.7176 21.245 65.2676 20.875L66.1076 19.465C66.4576 19.755 66.8976 19.985 67.4276 20.155C67.9676 20.335 68.5126 20.425 69.0626 20.425C69.9426 20.425 70.5876 20.22 70.9976 19.81C71.4076 19.41 71.6126 18.805 71.6126 17.995V16.57L71.7626 14.755L71.7026 12.94V10.99H73.4876V17.785C73.4876 19.235 73.1176 20.3 72.3776 20.98C71.6376 21.67 70.5676 22.015 69.1676 22.015ZM68.9276 18.64C68.1676 18.64 67.4776 18.48 66.8576 18.16C66.2476 17.83 65.7626 17.375 65.4026 16.795C65.0526 16.215 64.8776 15.535 64.8776 14.755C64.8776 13.985 65.0526 13.31 65.4026 12.73C65.7626 12.15 66.2476 11.7 66.8576 11.38C67.4776 11.06 68.1676 10.9 68.9276 10.9C69.6076 10.9 70.2176 11.035 70.7576 11.305C71.2976 11.575 71.7276 11.995 72.0476 12.565C72.3776 13.135 72.5426 13.865 72.5426 14.755C72.5426 15.645 72.3776 16.38 72.0476 16.96C71.7276 17.53 71.2976 17.955 70.7576 18.235C70.2176 18.505 69.6076 18.64 68.9276 18.64ZM69.2126 17.05C69.6826 17.05 70.1026 16.955 70.4726 16.765C70.8426 16.565 71.1276 16.295 71.3276 15.955C71.5376 15.605 71.6426 15.205 71.6426 14.755C71.6426 14.305 71.5376 13.91 71.3276 13.57C71.1276 13.22 70.8426 12.955 70.4726 12.775C70.1026 12.585 69.6826 12.49 69.2126 12.49C68.7426 12.49 68.3176 12.585 67.9376 12.775C67.5676 12.955 67.2776 13.22 67.0676 13.57C66.8676 13.91 66.7676 14.305 66.7676 14.755C66.7676 15.205 66.8676 15.605 67.0676 15.955C67.2776 16.295 67.5676 16.565 67.9376 16.765C68.3176 16.955 68.7426 17.05 69.2126 17.05ZM75.9527 19V10.99H77.7377V13.195L77.5277 12.55C77.7677 12.01 78.1427 11.6 78.6527 11.32C79.1727 11.04 79.8177 10.9 80.5877 10.9V12.685C80.5077 12.665 80.4327 12.655 80.3627 12.655C80.2927 12.645 80.2227 12.64 80.1527 12.64C79.4427 12.64 78.8777 12.85 78.4577 13.27C78.0377 13.68 77.8277 14.295 77.8277 15.115V19H75.9527ZM85.87 19.105C84.98 19.105 84.2 18.93 83.53 18.58C82.87 18.22 82.355 17.73 81.985 17.11C81.625 16.49 81.445 15.785 81.445 14.995C81.445 14.195 81.62 13.49 81.97 12.88C82.33 12.26 82.82 11.775 83.44 11.425C84.07 11.075 84.785 10.9 85.585 10.9C86.365 10.9 87.06 11.07 87.67 11.41C88.28 11.75 88.76 12.23 89.11 12.85C89.46 13.47 89.635 14.2 89.635 15.04C89.635 15.12 89.63 15.21 89.62 15.31C89.62 15.41 89.615 15.505 89.605 15.595H82.93V14.35H88.615L87.88 14.74C87.89 14.28 87.795 13.875 87.595 13.525C87.395 13.175 87.12 12.9 86.77 12.7C86.43 12.5 86.035 12.4 85.585 12.4C85.125 12.4 84.72 12.5 84.37 12.7C84.03 12.9 83.76 13.18 83.56 13.54C83.37 13.89 83.275 14.305 83.275 14.785V15.085C83.275 15.565 83.385 15.99 83.605 16.36C83.825 16.73 84.135 17.015 84.535 17.215C84.935 17.415 85.395 17.515 85.915 17.515C86.365 17.515 86.77 17.445 87.13 17.305C87.49 17.165 87.81 16.945 88.09 16.645L89.095 17.8C88.735 18.22 88.28 18.545 87.73 18.775C87.19 18.995 86.57 19.105 85.87 19.105ZM93.9111 19.105C93.2411 19.105 92.5961 19.02 91.9761 18.85C91.3661 18.67 90.8811 18.455 90.5211 18.205L91.2411 16.78C91.6011 17.01 92.0311 17.2 92.5311 17.35C93.0311 17.5 93.5311 17.575 94.0311 17.575C94.6211 17.575 95.0461 17.495 95.3061 17.335C95.5761 17.175 95.7111 16.96 95.7111 16.69C95.7111 16.47 95.6211 16.305 95.4411 16.195C95.2611 16.075 95.0261 15.985 94.7361 15.925C94.4461 15.865 94.1211 15.81 93.7611 15.76C93.4111 15.71 93.0561 15.645 92.6961 15.565C92.3461 15.475 92.0261 15.35 91.7361 15.19C91.4461 15.02 91.2111 14.795 91.0311 14.515C90.8511 14.235 90.7611 13.865 90.7611 13.405C90.7611 12.895 90.9061 12.455 91.1961 12.085C91.4861 11.705 91.8911 11.415 92.4111 11.215C92.9411 11.005 93.5661 10.9 94.2861 10.9C94.8261 10.9 95.3711 10.96 95.9211 11.08C96.4711 11.2 96.9261 11.37 97.2861 11.59L96.5661 13.015C96.1861 12.785 95.8011 12.63 95.4111 12.55C95.0311 12.46 94.6511 12.415 94.2711 12.415C93.7011 12.415 93.2761 12.5 92.9961 12.67C92.7261 12.84 92.5911 13.055 92.5911 13.315C92.5911 13.555 92.6811 13.735 92.8611 13.855C93.0411 13.975 93.2761 14.07 93.5661 14.14C93.8561 14.21 94.1761 14.27 94.5261 14.32C94.8861 14.36 95.2411 14.425 95.5911 14.515C95.9411 14.605 96.2611 14.73 96.5511 14.89C96.8511 15.04 97.0911 15.255 97.2711 15.535C97.4511 15.815 97.5411 16.18 97.5411 16.63C97.5411 17.13 97.3911 17.565 97.0911 17.935C96.8011 18.305 96.3861 18.595 95.8461 18.805C95.3061 19.005 94.6611 19.105 93.9111 19.105ZM101.631 19.105C100.961 19.105 100.316 19.02 99.6958 18.85C99.0858 18.67 98.6008 18.455 98.2408 18.205L98.9608 16.78C99.3208 17.01 99.7508 17.2 100.251 17.35C100.751 17.5 101.251 17.575 101.751 17.575C102.341 17.575 102.766 17.495 103.026 17.335C103.296 17.175 103.431 16.96 103.431 16.69C103.431 16.47 103.341 16.305 103.161 16.195C102.981 16.075 102.746 15.985 102.456 15.925C102.166 15.865 101.841 15.81 101.481 15.76C101.131 15.71 100.776 15.645 100.416 15.565C100.066 15.475 99.7458 15.35 99.4558 15.19C99.1658 15.02 98.9308 14.795 98.7508 14.515C98.5708 14.235 98.4808 13.865 98.4808 13.405C98.4808 12.895 98.6258 12.455 98.9158 12.085C99.2058 11.705 99.6108 11.415 100.131 11.215C100.661 11.005 101.286 10.9 102.006 10.9C102.546 10.9 103.091 10.96 103.641 11.08C104.191 11.2 104.646 11.37 105.006 11.59L104.286 13.015C103.906 12.785 103.521 12.63 103.131 12.55C102.751 12.46 102.371 12.415 101.991 12.415C101.421 12.415 100.996 12.5 100.716 12.67C100.446 12.84 100.311 13.055 100.311 13.315C100.311 13.555 100.401 13.735 100.581 13.855C100.761 13.975 100.996 14.07 101.286 14.14C101.576 14.21 101.896 14.27 102.246 14.32C102.606 14.36 102.961 14.425 103.311 14.515C103.661 14.605 103.981 14.73 104.271 14.89C104.571 15.04 104.811 15.255 104.991 15.535C105.171 15.815 105.261 16.18 105.261 16.63C105.261 17.13 105.111 17.565 104.811 17.935C104.521 18.305 104.106 18.595 103.566 18.805C103.026 19.005 102.381 19.105 101.631 19.105Z" fill="#14B8A6"/>
</svg>
