<svg width="100" height="100" viewBox="0 0 100 100" fill="none" xmlns="http://www.w3.org/2000/svg">
<g clip-path="url(#clip0_1_79)">
<path d="M94.4444 0H5.55556C2.48731 0 0 2.48731 0 5.55556V94.4444C0 97.5127 2.48731 100 5.55556 100H94.4444C97.5127 100 100 97.5127 100 94.4444V5.55556C100 2.48731 97.5127 0 94.4444 0Z" fill="white"/>
<path d="M58.9999 21H18.7777C15.7095 21 13.2222 23.4873 13.2222 26.5556V29C13.2222 32.0682 15.7095 34.5556 18.7777 34.5556H58.9999C62.0682 34.5556 64.5555 32.0682 64.5555 29V26.5556C64.5555 23.4873 62.0682 21 58.9999 21Z" fill="#14B8A6"/>
<path d="M70.1112 43.2222H29.8889C26.8207 43.2222 24.3334 45.7095 24.3334 48.7778V51.2222C24.3334 54.2905 26.8207 56.7778 29.8889 56.7778H70.1112C73.1794 56.7778 75.6667 54.2905 75.6667 51.2222V48.7778C75.6667 45.7095 73.1794 43.2222 70.1112 43.2222Z" fill="#14B8A6"/>
<path d="M81.2222 65.4444H41C37.9318 65.4444 35.4445 67.9317 35.4445 71V73.4444C35.4445 76.5127 37.9318 79 41 79H81.2222C84.2905 79 86.7778 76.5127 86.7778 73.4444V71C86.7778 67.9317 84.2905 65.4444 81.2222 65.4444Z" fill="#14B8A6"/>
</g>
<defs>
<clipPath id="clip0_1_79">
<rect width="100" height="100" fill="white"/>
</clipPath>
</defs>
</svg>
