<svg width="143" height="30" viewBox="0 0 143 30" fill="none" xmlns="http://www.w3.org/2000/svg">
<path d="M28.3333 0H1.66667C0.746192 0 0 0.746192 0 1.66667V28.3333C0 29.2538 0.746192 30 1.66667 30H28.3333C29.2538 30 30 29.2538 30 28.3333V1.66667C30 0.746192 29.2538 0 28.3333 0Z" fill="white"/>
<path d="M17.7 6.29999H5.63334C4.71287 6.29999 3.96667 7.04618 3.96667 7.96665V8.69999C3.96667 9.62046 4.71287 10.3667 5.63334 10.3667H17.7C18.6205 10.3667 19.3667 9.62046 19.3667 8.69999V7.96665C19.3667 7.04618 18.6205 6.29999 17.7 6.29999Z" fill="#14B8A6"/>
<path d="M21.0333 12.9667H8.96665C8.04618 12.9667 7.29999 13.7129 7.29999 14.6333V15.3667C7.29999 16.2871 8.04618 17.0333 8.96665 17.0333H21.0333C21.9538 17.0333 22.7 16.2871 22.7 15.3667V14.6333C22.7 13.7129 21.9538 12.9667 21.0333 12.9667Z" fill="#14B8A6"/>
<path d="M24.3667 19.6333H12.3C11.3796 19.6333 10.6334 20.3795 10.6334 21.3V22.0333C10.6334 22.9538 11.3796 23.7 12.3 23.7H24.3667C25.2872 23.7 26.0334 22.9538 26.0334 22.0333V21.3C26.0334 20.3795 25.2872 19.6333 24.3667 19.6333Z" fill="#14B8A6"/>
<path d="M37.76 22V19.9L46.42 9.46L46.82 10.64H37.92V8H49.7V10.1L41.06 20.54L40.66 19.36H50V22H37.76ZM57.0808 22.16C55.8541 22.16 54.7741 21.92 53.8408 21.44C52.9208 20.96 52.2074 20.3067 51.7008 19.48C51.1941 18.64 50.9408 17.6867 50.9408 16.62C50.9408 15.54 51.1874 14.5867 51.6808 13.76C52.1874 12.92 52.8741 12.2667 53.7408 11.8C54.6074 11.32 55.5874 11.08 56.6808 11.08C57.7341 11.08 58.6808 11.3067 59.5208 11.76C60.3741 12.2 61.0474 12.84 61.5408 13.68C62.0341 14.5067 62.2808 15.5 62.2808 16.66C62.2808 16.78 62.2741 16.92 62.2608 17.08C62.2474 17.2267 62.2341 17.3667 62.2208 17.5H53.4808V15.68H60.5808L59.3808 16.22C59.3808 15.66 59.2674 15.1733 59.0408 14.76C58.8141 14.3467 58.5008 14.0267 58.1008 13.8C57.7008 13.56 57.2341 13.44 56.7008 13.44C56.1674 13.44 55.6941 13.56 55.2808 13.8C54.8808 14.0267 54.5674 14.3533 54.3408 14.78C54.1141 15.1933 54.0008 15.6867 54.0008 16.26V16.74C54.0008 17.3267 54.1274 17.8467 54.3808 18.3C54.6474 18.74 55.0141 19.08 55.4808 19.32C55.9608 19.5467 56.5208 19.66 57.1608 19.66C57.7341 19.66 58.2341 19.5733 58.6608 19.4C59.1008 19.2267 59.5008 18.9667 59.8608 18.62L61.5208 20.42C61.0274 20.98 60.4074 21.4133 59.6608 21.72C58.9141 22.0133 58.0541 22.16 57.0808 22.16ZM70.718 22.16C69.8113 22.16 69.018 21.96 68.338 21.56C67.658 21.16 67.1246 20.5533 66.738 19.74C66.3646 18.9133 66.178 17.8733 66.178 16.62C66.178 15.3533 66.358 14.3133 66.718 13.5C67.078 12.6867 67.598 12.08 68.278 11.68C68.958 11.28 69.7713 11.08 70.718 11.08C71.7313 11.08 72.638 11.3133 73.438 11.78C74.2513 12.2333 74.8913 12.8733 75.358 13.7C75.838 14.5267 76.078 15.5 76.078 16.62C76.078 17.7533 75.838 18.7333 75.358 19.56C74.8913 20.3867 74.2513 21.0267 73.438 21.48C72.638 21.9333 71.7313 22.16 70.718 22.16ZM64.358 25.88V11.24H67.338V13.44L67.278 16.64L67.478 19.82V25.88H64.358ZM70.178 19.6C70.698 19.6 71.158 19.48 71.558 19.24C71.9713 19 72.298 18.66 72.538 18.22C72.7913 17.7667 72.918 17.2333 72.918 16.62C72.918 15.9933 72.7913 15.46 72.538 15.02C72.298 14.58 71.9713 14.24 71.558 14C71.158 13.76 70.698 13.64 70.178 13.64C69.658 13.64 69.1913 13.76 68.778 14C68.3646 14.24 68.038 14.58 67.798 15.02C67.558 15.46 67.438 15.9933 67.438 16.62C67.438 17.2333 67.558 17.7667 67.798 18.22C68.038 18.66 68.3646 19 68.778 19.24C69.1913 19.48 69.658 19.6 70.178 19.6ZM84.5908 22V19.9L84.3908 19.44V15.68C84.3908 15.0133 84.1841 14.4933 83.7708 14.12C83.3708 13.7467 82.7508 13.56 81.9108 13.56C81.3374 13.56 80.7708 13.6533 80.2108 13.84C79.6641 14.0133 79.1974 14.2533 78.8108 14.56L77.6908 12.38C78.2774 11.9667 78.9841 11.6467 79.8108 11.42C80.6374 11.1933 81.4774 11.08 82.3308 11.08C83.9708 11.08 85.2441 11.4667 86.1508 12.24C87.0574 13.0133 87.5108 14.22 87.5108 15.86V22H84.5908ZM81.3108 22.16C80.4708 22.16 79.7508 22.02 79.1508 21.74C78.5508 21.4467 78.0908 21.0533 77.7708 20.56C77.4508 20.0667 77.2908 19.5133 77.2908 18.9C77.2908 18.26 77.4441 17.7 77.7508 17.22C78.0708 16.74 78.5708 16.3667 79.2508 16.1C79.9308 15.82 80.8174 15.68 81.9108 15.68H84.7708V17.5H82.2508C81.5174 17.5 81.0108 17.62 80.7308 17.86C80.4641 18.1 80.3308 18.4 80.3308 18.76C80.3308 19.16 80.4841 19.48 80.7908 19.72C81.1108 19.9467 81.5441 20.06 82.0908 20.06C82.6108 20.06 83.0774 19.94 83.4908 19.7C83.9041 19.4467 84.2041 19.08 84.3908 18.6L84.8708 20.04C84.6441 20.7333 84.2308 21.26 83.6308 21.62C83.0308 21.98 82.2574 22.16 81.3108 22.16ZM91.4992 26.04C90.9392 26.04 90.3859 25.9533 89.8392 25.78C89.2926 25.6067 88.8459 25.3667 88.4992 25.06L89.6392 22.84C89.8792 23.0533 90.1526 23.22 90.4592 23.34C90.7792 23.46 91.0926 23.52 91.3992 23.52C91.8392 23.52 92.1859 23.4133 92.4392 23.2C92.7059 23 92.9459 22.66 93.1592 22.18L93.7192 20.86L93.9592 20.52L97.8192 11.24H100.819L95.9592 22.66C95.6126 23.5267 95.2126 24.2067 94.7592 24.7C94.3192 25.1933 93.8259 25.54 93.2792 25.74C92.7459 25.94 92.1526 26.04 91.4992 26.04ZM93.3392 22.42L88.5392 11.24H91.7592L95.4792 20.24L93.3392 22.42ZM102.092 22V11.24H105.072V14.28L104.652 13.4C104.972 12.64 105.486 12.0667 106.192 11.68C106.899 11.28 107.759 11.08 108.772 11.08V13.96C108.639 13.9467 108.519 13.94 108.412 13.94C108.306 13.9267 108.192 13.92 108.072 13.92C107.219 13.92 106.526 14.1667 105.992 14.66C105.472 15.14 105.212 15.8933 105.212 16.92V22H102.092ZM115.669 22.16C114.523 22.16 113.503 21.92 112.609 21.44C111.729 20.96 111.029 20.3067 110.509 19.48C110.003 18.64 109.749 17.6867 109.749 16.62C109.749 15.54 110.003 14.5867 110.509 13.76C111.029 12.92 111.729 12.2667 112.609 11.8C113.503 11.32 114.523 11.08 115.669 11.08C116.803 11.08 117.816 11.32 118.709 11.8C119.603 12.2667 120.303 12.9133 120.809 13.74C121.316 14.5667 121.569 15.5267 121.569 16.62C121.569 17.6867 121.316 18.64 120.809 19.48C120.303 20.3067 119.603 20.96 118.709 21.44C117.816 21.92 116.803 22.16 115.669 22.16ZM115.669 19.6C116.189 19.6 116.656 19.48 117.069 19.24C117.483 19 117.809 18.66 118.049 18.22C118.289 17.7667 118.409 17.2333 118.409 16.62C118.409 15.9933 118.289 15.46 118.049 15.02C117.809 14.58 117.483 14.24 117.069 14C116.656 13.76 116.189 13.64 115.669 13.64C115.149 13.64 114.683 13.76 114.269 14C113.856 14.24 113.523 14.58 113.269 15.02C113.029 15.46 112.909 15.9933 112.909 16.62C112.909 17.2333 113.029 17.7667 113.269 18.22C113.523 18.66 113.856 19 114.269 19.24C114.683 19.48 115.149 19.6 115.669 19.6ZM123.655 22V7.16H126.775V22H123.655ZM129.67 22V7.16H132.79V22H129.67Z" fill="#121212"/>
</svg>
