<svg width="30" height="30" viewBox="0 0 30 30" fill="none" xmlns="http://www.w3.org/2000/svg">
<g clip-path="url(#clip0_1_104)">
<g clip-path="url(#clip1_1_104)">
<path d="M23 17C23.3852 17.0002 23.7556 17.1486 24.0344 17.4144C24.3132 17.6802 24.479 18.0431 24.4975 18.4279C24.516 18.8127 24.3858 19.1898 24.1338 19.4812C23.8818 19.7726 23.5274 19.9558 23.144 19.993L23 20H10.621L12.061 21.44C12.3338 21.7118 12.4916 22.0781 12.5017 22.463C12.5119 22.8479 12.3736 23.222 12.1156 23.5078C11.8576 23.7936 11.4995 23.9692 11.1155 23.9983C10.7316 24.0274 10.3511 23.9077 10.053 23.664L9.93899 23.561L6.10999 19.731C5.13599 18.757 5.76999 17.114 7.10099 17.006L7.24099 17H23ZM17.94 6.44C18.2024 6.17739 18.5528 6.0214 18.9235 6.00219C19.2942 5.98298 19.6589 6.10192 19.947 6.336L20.061 6.439L23.89 10.269C24.864 11.243 24.23 12.886 22.899 12.994L22.759 13H6.99999C6.61477 12.9998 6.2444 12.8514 5.9656 12.5856C5.68681 12.3198 5.52098 11.9569 5.50247 11.5721C5.48395 11.1873 5.61418 10.8102 5.86617 10.5188C6.11815 10.2274 6.47257 10.0442 6.85599 10.007L6.99999 10H19.379L17.939 8.56C17.6581 8.27875 17.5003 7.8975 17.5003 7.5C17.5003 7.1025 17.6591 6.72125 17.94 6.44Z" fill="#555555"/>
</g>
</g>
<defs>
<clipPath id="clip0_1_104">
<rect width="30" height="30" fill="white"/>
</clipPath>
<clipPath id="clip1_1_104">
<rect width="24" height="24" fill="white" transform="translate(3 3)"/>
</clipPath>
</defs>
</svg>
