<svg width="30" height="30" viewBox="0 0 30 30" fill="none" xmlns="http://www.w3.org/2000/svg">
<g clip-path="url(#clip0_15_884)">
<path d="M28.3333 0H1.66667C0.746192 0 0 0.746192 0 1.66667V28.3333C0 29.2538 0.746192 30 1.66667 30H28.3333C29.2538 30 30 29.2538 30 28.3333V1.66667C30 0.746192 29.2538 0 28.3333 0Z" fill="#14B8A6"/>
<path d="M17.7001 6.29999H5.63346C4.71299 6.29999 3.9668 7.04618 3.9668 7.96665V8.69999C3.9668 9.62046 4.71299 10.3667 5.63346 10.3667H17.7001C18.6206 10.3667 19.3668 9.62046 19.3668 8.69999V7.96665C19.3668 7.04618 18.6206 6.29999 17.7001 6.29999Z" fill="white"/>
<path d="M21.0331 12.9667H8.96647C8.046 12.9667 7.2998 13.7129 7.2998 14.6333V15.3667C7.2998 16.2871 8.046 17.0333 8.96647 17.0333H21.0331C21.9536 17.0333 22.6998 16.2871 22.6998 15.3667V14.6333C22.6998 13.7129 21.9536 12.9667 21.0331 12.9667Z" fill="white"/>
<path d="M24.3666 19.6333H12.3C11.3795 19.6333 10.6333 20.3795 10.6333 21.3V22.0333C10.6333 22.9538 11.3795 23.7 12.3 23.7H24.3666C25.2871 23.7 26.0333 22.9538 26.0333 22.0333V21.3C26.0333 20.3795 25.2871 19.6333 24.3666 19.6333Z" fill="white"/>
</g>
<defs>
<clipPath id="clip0_15_884">
<rect width="30" height="30" fill="white"/>
</clipPath>
</defs>
</svg>
