<svg width="30" height="30" viewBox="0 0 30 30" fill="none" xmlns="http://www.w3.org/2000/svg">
<path d="M15 11C16.0609 11 17.0783 11.4214 17.8284 12.1716C18.5786 12.9217 19 13.9391 19 15C19 16.0609 18.5786 17.0783 17.8284 17.8284C17.0783 18.5786 16.0609 19 15 19C13.9391 19 12.9217 18.5786 12.1716 17.8284C11.4214 17.0783 11 16.0609 11 15C11 13.9391 11.4214 12.9217 12.1716 12.1716C12.9217 11.4214 13.9391 11 15 11ZM15 13C14.4696 13 13.9609 13.2107 13.5858 13.5858C13.2107 13.9609 13 14.4696 13 15C13 15.5304 13.2107 16.0391 13.5858 16.4142C13.9609 16.7893 14.4696 17 15 17C15.5304 17 16.0392 16.7893 16.4142 16.4142C16.7893 16.0391 17 15.5304 17 15C17 14.4696 16.7893 13.9609 16.4142 13.5858C16.0392 13.2107 15.5304 13 15 13ZM13 25C12.75 25 12.54 24.82 12.5 24.58L12.13 21.93C11.5 21.68 10.96 21.34 10.44 20.94L7.95001 21.95C7.73001 22.03 7.46001 21.95 7.34001 21.73L5.34001 18.27C5.27881 18.167 5.25723 18.0452 5.27932 17.9274C5.30141 17.8096 5.36564 17.7039 5.46001 17.63L7.57001 15.97L7.50001 15L7.57001 14L5.46001 12.37C5.36564 12.2961 5.30141 12.1904 5.27932 12.0726C5.25723 11.9548 5.27881 11.833 5.34001 11.73L7.34001 8.27C7.46001 8.05 7.73001 7.96 7.95001 8.05L10.44 9.05C10.96 8.66 11.5 8.32 12.13 8.07L12.5 5.42C12.54 5.18 12.75 5 13 5H17C17.25 5 17.46 5.18 17.5 5.42L17.87 8.07C18.5 8.32 19.04 8.66 19.56 9.05L22.05 8.05C22.27 7.96 22.54 8.05 22.66 8.27L24.66 11.73C24.79 11.95 24.73 12.22 24.54 12.37L22.43 14L22.5 15L22.43 16L24.54 17.63C24.73 17.78 24.79 18.05 24.66 18.27L22.66 21.73C22.54 21.95 22.27 22.04 22.05 21.95L19.56 20.95C19.04 21.34 18.5 21.68 17.87 21.93L17.5 24.58C17.46 24.82 17.25 25 17 25H13ZM14.25 7L13.88 9.61C12.68 9.86 11.62 10.5 10.85 11.39L8.44001 10.35L7.69001 11.65L9.80001 13.2C9.40001 14.3667 9.40001 15.6333 9.80001 16.8L7.68001 18.36L8.43001 19.66L10.86 18.62C11.63 19.5 12.68 20.14 13.87 20.38L14.24 23H15.76L16.13 20.39C17.32 20.14 18.37 19.5 19.14 18.62L21.57 19.66L22.32 18.36L20.2 16.81C20.6 15.64 20.6 14.37 20.2 13.2L22.31 11.65L21.56 10.35L19.15 11.39C18.3642 10.4803 17.2983 9.85767 16.12 9.62L15.75 7H14.25Z" fill="#555555"/>
</svg>
