<svg width="30" height="30" viewBox="0 0 30 30" fill="none" xmlns="http://www.w3.org/2000/svg">
<g clip-path="url(#clip0_15_680)">
<path d="M15 2.5C16.115 2.5 17.5125 2.64125 18.6763 3.035C19.2563 3.23 19.8638 3.51625 20.3463 3.95125C20.8538 4.4075 21.25 5.06 21.25 5.8925C21.25 6.695 20.8825 7.3575 20.4412 7.85C20.1936 8.12294 19.9156 8.36661 19.6125 8.57625C23.3438 10.355 26.25 14.1687 26.25 18.75C26.25 21.945 24.975 24.2325 22.7925 25.6562C20.6987 27.0212 17.9125 27.5 15 27.5C12.0875 27.5 9.3 27.0212 7.2075 25.6562C5.025 24.2325 3.75 21.9438 3.75 18.75C3.75 14.1687 6.65625 10.355 10.3875 8.57625C10.0845 8.36703 9.80641 8.12377 9.55875 7.85125C9.1175 7.35625 8.75 6.69375 8.75 5.89125C8.75 5.05875 9.14625 4.40625 9.65375 3.95C10.1363 3.515 10.7438 3.22875 11.3238 3.03375C12.4875 2.64125 13.885 2.5 15 2.5ZM15 10C10.64 10 6.25 13.865 6.25 18.75C6.25 21.18 7.1625 22.6425 8.57375 23.5625C10.0738 24.5413 12.2875 25 15 25C17.7125 25 19.925 24.5413 21.4263 23.5625C22.8375 22.6425 23.75 21.18 23.75 18.75C23.75 13.865 19.36 10 15 10ZM17.4337 13.2575C17.73 13.4058 17.9553 13.6657 18.0601 13.98C18.1648 14.2943 18.1405 14.6373 17.9925 14.9337L17.335 16.25H17.5C17.8315 16.25 18.1495 16.3817 18.3839 16.6161C18.6183 16.8505 18.75 17.1685 18.75 17.5C18.75 17.8315 18.6183 18.1495 18.3839 18.3839C18.1495 18.6183 17.8315 18.75 17.5 18.75H16.25V19.375H17.5C17.8315 19.375 18.1495 19.5067 18.3839 19.7411C18.6183 19.9755 18.75 20.2935 18.75 20.625C18.75 20.9565 18.6183 21.2745 18.3839 21.5089C18.1495 21.7433 17.8315 21.875 17.5 21.875H16.25V22.5C16.25 22.8315 16.1183 23.1495 15.8839 23.3839C15.6495 23.6183 15.3315 23.75 15 23.75C14.6685 23.75 14.3505 23.6183 14.1161 23.3839C13.8817 23.1495 13.75 22.8315 13.75 22.5V21.875H12.5C12.1685 21.875 11.8505 21.7433 11.6161 21.5089C11.3817 21.2745 11.25 20.9565 11.25 20.625C11.25 20.2935 11.3817 19.9755 11.6161 19.7411C11.8505 19.5067 12.1685 19.375 12.5 19.375H13.75V18.75H12.5C12.1685 18.75 11.8505 18.6183 11.6161 18.3839C11.3817 18.1495 11.25 17.8315 11.25 17.5C11.25 17.1685 11.3817 16.8505 11.6161 16.6161C11.8505 16.3817 12.1685 16.25 12.5 16.25H12.665L12.0075 14.9337C11.928 14.7864 11.879 14.6246 11.8633 14.4579C11.8475 14.2913 11.8654 14.1231 11.9159 13.9635C11.9664 13.8039 12.0484 13.6561 12.1571 13.5288C12.2658 13.4015 12.399 13.2973 12.5487 13.2224C12.6984 13.1476 12.8617 13.1035 13.0288 13.0929C13.1958 13.0824 13.3633 13.1055 13.5213 13.1608C13.6793 13.2162 13.8245 13.3028 13.9484 13.4154C14.0723 13.528 14.1723 13.6643 14.2425 13.8163L15 15.3287L15.7575 13.8163C15.9058 13.52 16.1657 13.2947 16.48 13.1899C16.7943 13.0852 17.1373 13.1095 17.4337 13.2575ZM15 5C14.0437 5 12.9413 5.12625 12.1238 5.4025C11.7113 5.5425 11.4575 5.69 11.3263 5.80875L11.2612 5.8775C11.2572 5.88311 11.2534 5.88895 11.25 5.895L11.2587 5.935C11.2955 6.02842 11.3508 6.11345 11.4213 6.185C11.5963 6.38 11.89 6.6025 12.2987 6.81375C13.1237 7.24125 14.1775 7.5 15 7.5C15.8225 7.5 16.8775 7.24125 17.7013 6.81375C18.11 6.6025 18.4025 6.38 18.5787 6.18375C18.649 6.11256 18.7043 6.02797 18.7413 5.935L18.75 5.895L18.715 5.85C18.7019 5.83561 18.6881 5.82185 18.6737 5.80875C18.5425 5.69125 18.2887 5.5425 17.8762 5.4025C17.0587 5.1275 15.9563 5 15 5Z" fill="#555555"/>
</g>
<defs>
<clipPath id="clip0_15_680">
<rect width="30" height="30" fill="white"/>
</clipPath>
</defs>
</svg>
